<svg width="14" height="15" viewBox="0 0 14 15" fill="none" xmlns="http://www.w3.org/2000/svg">
<path d="M13 6.33333H1M9.66667 1V3.66667M4.33333 1V3.66667M4.2 14.3333H9.8C10.9201 14.3333 11.4802 14.3333 11.908 14.1153C12.2843 13.9236 12.5903 13.6176 12.782 13.2413C13 12.8135 13 12.2534 13 11.1333V5.53333C13 4.41323 13 3.85318 12.782 3.42535C12.5903 3.04903 12.2843 2.74307 11.908 2.55132C11.4802 2.33333 10.9201 2.33333 9.8 2.33333H4.2C3.0799 2.33333 2.51984 2.33333 2.09202 2.55132C1.71569 2.74307 1.40973 3.04903 1.21799 3.42535C1 3.85318 1 4.41323 1 5.53333V11.1333C1 12.2534 1 12.8135 1.21799 13.2413C1.40973 13.6176 1.71569 13.9236 2.09202 14.1153C2.51984 14.3333 3.0799 14.3333 4.2 14.3333Z" stroke="#7A7A7A" stroke-linecap="round" stroke-linejoin="round"/>
</svg>
