<svg width="16" height="16" viewBox="0 0 16 16" fill="none" xmlns="http://www.w3.org/2000/svg">
<path d="M1.61342 8.47546C1.52262 8.3317 1.47723 8.25982 1.45182 8.14895C1.43273 8.06568 1.43273 7.93434 1.45182 7.85107C1.47723 7.7402 1.52262 7.66832 1.61341 7.52456C2.36369 6.33657 4.59693 3.33334 8.00027 3.33334C11.4036 3.33334 13.6369 6.33657 14.3871 7.52456C14.4779 7.66832 14.5233 7.7402 14.5487 7.85107C14.5678 7.93434 14.5678 8.06568 14.5487 8.14895C14.5233 8.25982 14.4779 8.3317 14.3871 8.47546C13.6369 9.66345 11.4036 12.6667 8.00027 12.6667C4.59693 12.6667 2.36369 9.66345 1.61342 8.47546Z" stroke="#7A7A7A" stroke-linecap="round" stroke-linejoin="round"/>
<path d="M8.00027 10C9.10484 10 10.0003 9.10458 10.0003 8.00001C10.0003 6.89544 9.10484 6.00001 8.00027 6.00001C6.8957 6.00001 6.00027 6.89544 6.00027 8.00001C6.00027 9.10458 6.8957 10 8.00027 10Z" stroke="#7A7A7A" stroke-linecap="round" stroke-linejoin="round"/>
</svg>
